<?xml version="1.0" encoding="utf-8"?>
<!-- Generator: Adobe Illustrator 16.0.0, SVG Export Plug-In . SVG Version: 6.00 Build 0)  -->
<!DOCTYPE svg PUBLIC "-//W3C//DTD SVG 1.1//EN" "http://www.w3.org/Graphics/SVG/1.1/DTD/svg11.dtd">
<svg version="1.1" id="Layer_1" xmlns="http://www.w3.org/2000/svg" xmlns:xlink="http://www.w3.org/1999/xlink" x="0px" y="0px"
	 width="290px" height="99.367px" viewBox="0 0 290 99.367" enable-background="new 0 0 290 99.367" xml:space="preserve">
<path fill="none" d="M-1.955-257.618"/>
<path fill="#FFFFFF" d="M60.912,60.606c0-16.909-13.636-30.614-30.457-30.614c-4.959,0-9.642,1.191-13.78,3.306v-16.3
	C16.676,8.717,12.054,0,0,0v60.606C0,77.514,13.635,91.22,30.456,91.22C47.276,91.22,60.912,77.514,60.912,60.606 M16.676,60.753
	V38.938l7.713,8.628c2.019-1.074,4.318-1.685,6.761-1.685c7.995,0,14.474,6.514,14.474,14.55c0,8.034-6.479,14.549-14.474,14.549
	c-7.887,0-14.295-6.342-14.467-14.228H16.676z M25.843,68.026c1.987,0.145,4.065-0.288,5.756-0.678
	c4.534-1.524,7.355-5.732,8.067-10.388C44.427,65.154,32.557,74.511,25.843,68.026"/>
<path fill="#FFFFFF" d="M84.803,81.708c-1.646,2.22-4.375,3.33-8.186,3.33s-6.54-1.11-8.187-3.33
	c-1.646-2.221-2.468-5.42-2.468-9.602V61.452c0-4.18,0.822-7.381,2.468-9.602c1.647-2.219,4.376-3.329,8.187-3.329
	s6.539,1.11,8.186,3.329c1.647,2.221,2.47,5.422,2.47,9.602v10.654C87.273,76.288,86.45,79.487,84.803,81.708 M75.3,78.988
	c0.379,0.148,0.818,0.223,1.318,0.223s0.938-0.074,1.317-0.223s0.693-0.327,0.944-0.541c0.25-0.212,0.458-0.527,0.625-0.942
	c0.166-0.417,0.295-0.782,0.389-1.098c0.093-0.313,0.157-0.767,0.194-1.358s0.06-1.06,0.07-1.401
	c0.009-0.342,0.014-0.854,0.014-1.541V61.452c0-0.685-0.005-1.197-0.014-1.54c-0.01-0.342-0.033-0.809-0.07-1.402
	c-0.037-0.59-0.101-1.044-0.194-1.358c-0.093-0.314-0.223-0.68-0.389-1.097c-0.166-0.416-0.375-0.729-0.625-0.943
	c-0.25-0.213-0.565-0.393-0.944-0.541s-0.818-0.222-1.317-0.222s-0.939,0.073-1.318,0.222c-0.379,0.148-0.694,0.328-0.943,0.541
	c-0.25,0.214-0.458,0.527-0.625,0.943c-0.166,0.417-0.295,0.782-0.387,1.097c-0.093,0.314-0.158,0.769-0.195,1.358
	c-0.038,0.594-0.06,1.061-0.069,1.402c-0.009,0.343-0.014,0.855-0.014,1.54v10.654c0,0.687,0.005,1.199,0.014,1.541
	c0.009,0.342,0.031,0.81,0.069,1.401c0.037,0.592,0.102,1.045,0.195,1.358c0.092,0.315,0.221,0.681,0.387,1.098
	c0.167,0.415,0.375,0.73,0.625,0.942C74.606,78.661,74.92,78.84,75.3,78.988"/>
<path fill="#FFFFFF" d="M106.475,85.038c-1.443,0-2.719-0.343-3.83-1.027c-1.109-0.685-2.201-1.581-3.274-2.69v3.218h-7.104V34.842
	h7.104v17.703c0.666-0.703,1.166-1.212,1.499-1.527c0.333-0.313,0.818-0.71,1.456-1.191c0.638-0.481,1.299-0.819,1.984-1.014
	c0.684-0.194,1.443-0.291,2.275-0.291c1.202,0,2.275,0.217,3.219,0.652c0.944,0.435,1.72,0.957,2.331,1.567s1.128,1.49,1.554,2.637
	c0.426,1.146,0.745,2.182,0.958,3.107c0.213,0.925,0.375,2.173,0.486,3.746c0.112,1.572,0.175,2.844,0.194,3.814
	c0.019,0.972,0.028,2.309,0.028,4.01v0.472c0,1.555-0.079,3.053-0.235,4.495c-0.158,1.443-0.444,2.914-0.861,4.413
	c-0.416,1.497-0.944,2.792-1.581,3.885c-0.638,1.091-1.49,1.984-2.553,2.677C109.059,84.69,107.843,85.038,106.475,85.038
	 M104.698,79.211c0.759,0,1.392-0.278,1.901-0.833s0.878-1.345,1.11-2.372c0.23-1.026,0.389-2.048,0.471-3.066
	c0.083-1.017,0.125-2.2,0.125-3.551c0-1-0.004-2.321-0.014-3.969c-0.009-1.646-0.014-2.886-0.014-3.719
	c0-0.832-0.018-1.558-0.055-2.178c-0.037-0.619-0.13-1.271-0.278-1.956c-0.148-0.685-0.347-1.248-0.597-1.692
	c-0.249-0.443-0.596-0.81-1.041-1.096c-0.444-0.287-0.979-0.431-1.609-0.431c-1.96,0-3.737,0.473-5.327,1.415v22.338
	C101.202,78.84,102.978,79.211,104.698,79.211"/>
<path fill="#FFFFFF" d="M134.555,85.038c-1.443,0-2.719-0.343-3.829-1.027c-1.11-0.685-2.202-1.581-3.274-2.69v3.218h-7.104V34.842
	h7.104v17.703c0.666-0.703,1.166-1.212,1.498-1.527c0.333-0.313,0.818-0.71,1.457-1.191s1.299-0.819,1.984-1.014
	c0.684-0.194,1.443-0.291,2.275-0.291c1.202,0,2.275,0.217,3.219,0.652c0.943,0.435,1.72,0.957,2.332,1.567
	c0.609,0.61,1.126,1.49,1.553,2.637c0.426,1.146,0.745,2.182,0.957,3.107c0.213,0.925,0.375,2.173,0.486,3.746
	c0.11,1.572,0.174,2.844,0.193,3.814c0.018,0.972,0.027,2.309,0.027,4.01v0.472c0,1.555-0.078,3.053-0.234,4.495
	c-0.158,1.443-0.445,2.914-0.86,4.413c-0.418,1.497-0.944,2.792-1.581,3.885c-0.641,1.091-1.49,1.984-2.554,2.677
	C137.141,84.69,135.925,85.038,134.555,85.038 M132.78,79.211c0.758,0,1.391-0.278,1.901-0.833c0.508-0.555,0.877-1.345,1.109-2.372
	c0.231-1.026,0.389-2.048,0.471-3.066c0.084-1.017,0.125-2.2,0.125-3.551c0-1-0.004-2.321-0.014-3.969
	c-0.009-1.646-0.014-2.886-0.014-3.719c0-0.832-0.019-1.558-0.056-2.178c-0.037-0.619-0.129-1.271-0.277-1.956
	s-0.347-1.248-0.597-1.692c-0.249-0.443-0.596-0.81-1.04-1.096c-0.444-0.287-0.98-0.431-1.609-0.431
	c-1.961,0-3.737,0.473-5.328,1.415v22.338C129.283,78.84,131.059,79.211,132.78,79.211"/>
<rect x="149.291" y="34.814" fill="#FFFFFF" width="7.103" height="49.724"/>
<path fill="#FFFFFF" d="M172.764,85.038c-1.719,0-3.214-0.297-4.481-0.889c-1.267-0.591-2.276-1.364-3.023-2.316
	c-0.75-0.953-1.355-2.174-1.817-3.663c-0.463-1.489-0.783-2.979-0.959-4.467c-0.175-1.489-0.28-3.224-0.318-5.203
	c-0.055-1.554-0.055-3.108,0-4.662c0.056-1.849,0.18-3.49,0.375-4.925c0.194-1.434,0.531-2.826,1.013-4.177
	c0.48-1.35,1.105-2.459,1.873-3.329c0.767-0.87,1.775-1.568,3.025-2.096c1.248-0.526,2.706-0.79,4.369-0.79
	c1.52,0,2.854,0.198,4.01,0.597s2.118,0.999,2.885,1.804c0.769,0.804,1.406,1.697,1.917,2.679c0.508,0.979,0.892,2.167,1.151,3.564
	c0.258,1.396,0.438,2.771,0.54,4.12c0.103,1.351,0.153,2.904,0.153,4.663v0.831h-14.208v1.776v1.137
	c-0.037,0.685-0.042,1.393-0.013,2.124c0.025,0.73,0.058,1.447,0.096,2.149c0.037,0.703,0.14,1.374,0.306,2.012
	c0.168,0.639,0.37,1.198,0.61,1.679c0.239,0.482,0.578,0.86,1.014,1.139c0.434,0.277,0.948,0.416,1.539,0.416
	c0.741,0,1.352-0.144,1.83-0.43c0.482-0.287,0.838-0.717,1.069-1.291c0.23-0.572,0.393-1.146,0.486-1.72
	c0.093-0.573,0.147-1.295,0.166-2.165v-1.499h7.049v1.416c-0.167,3.792-1.1,6.659-2.803,8.602
	C178.916,84.066,176.298,85.038,172.764,85.038 M169.268,63.229h7.048v-2.138c-0.018-0.943-0.073-1.766-0.166-2.469
	c-0.094-0.702-0.255-1.405-0.486-2.109c-0.231-0.703-0.587-1.239-1.067-1.609c-0.482-0.369-1.072-0.555-1.776-0.555
	c-0.721,0-1.326,0.194-1.816,0.582c-0.489,0.39-0.853,0.949-1.083,1.679c-0.231,0.731-0.393,1.448-0.483,2.151
	c-0.095,0.703-0.151,1.545-0.169,2.524V63.229z"/>
<path fill="#FFFFFF" d="M197.932,85.038c-2.923,0-5.268-0.87-7.033-2.608c-1.768-1.738-2.975-3.996-3.622-6.771l5.328-1.775
	c1.276,3.552,3.053,5.327,5.327,5.327c1.128,0,2.003-0.311,2.623-0.931c0.619-0.618,0.929-1.493,0.929-2.621
	c0-1.646-0.593-3.015-1.775-4.107l-7.104-5.327c-0.796-0.536-1.462-1.04-1.998-1.513c-0.537-0.472-1.082-1.049-1.637-1.733
	c-0.555-0.684-0.977-1.452-1.263-2.303c-0.287-0.852-0.431-1.776-0.431-2.776c0-3.033,0.967-5.354,2.9-6.964
	s4.518-2.414,7.755-2.414c1.536,0,2.922,0.245,4.161,0.734c1.24,0.492,2.281,1.18,3.122,2.068c0.844,0.889,1.536,1.872,2.082,2.954
	c0.545,1.084,0.977,2.291,1.29,3.621l-5.327,1.777c-0.259-0.703-0.519-1.309-0.776-1.817c-0.261-0.51-0.606-1.06-1.042-1.652
	c-0.435-0.591-0.947-1.049-1.539-1.373c-0.592-0.323-1.249-0.485-1.971-0.485c-1.128,0-2.003,0.311-2.622,0.93
	c-0.62,0.62-0.93,1.493-0.93,2.621c0,1.111,0.593,2.11,1.776,2.998l7.104,5.327c0.795,0.629,1.475,1.235,2.039,1.817
	c0.564,0.583,1.114,1.258,1.651,2.026c0.536,0.768,0.943,1.623,1.222,2.566c0.276,0.943,0.415,1.952,0.415,3.024
	c0,3.034-0.966,5.354-2.899,6.964C203.755,84.233,201.169,85.038,197.932,85.038"/>
<path fill="#FFFFFF" d="M212.917,84.538V34.814h7.103v18.036c1.056-0.962,1.915-1.696,2.581-2.207
	c0.666-0.508,1.585-0.989,2.762-1.441c1.174-0.454,2.428-0.681,3.76-0.681c1.516,0,2.746,0.556,3.69,1.665
	c0.942,1.109,1.414,2.471,1.414,4.079v30.272h-7.103V57.899c0-1.221-0.153-2.117-0.458-2.69c-0.306-0.573-0.967-0.86-1.983-0.86
	c-1.444,0-2.997,0.693-4.663,2.081v28.108H212.917z"/>
<path fill="#FFFFFF" d="M258.618,81.708c-1.646,2.22-4.376,3.33-8.187,3.33c-3.81,0-6.539-1.11-8.185-3.33
	c-1.647-2.221-2.47-5.42-2.47-9.602V61.452c0-4.18,0.822-7.381,2.47-9.602c1.646-2.219,4.375-3.329,8.185-3.329
	c3.811,0,6.54,1.11,8.187,3.329c1.646,2.221,2.469,5.422,2.469,9.602v10.654C261.086,76.288,260.263,79.487,258.618,81.708
	 M249.113,78.988c0.38,0.148,0.819,0.223,1.318,0.223s0.939-0.074,1.318-0.223c0.378-0.148,0.693-0.327,0.942-0.541
	c0.25-0.212,0.459-0.527,0.626-0.942c0.165-0.417,0.295-0.782,0.388-1.098c0.093-0.313,0.157-0.767,0.194-1.358
	c0.036-0.592,0.061-1.06,0.07-1.401c0.009-0.342,0.014-0.854,0.014-1.541V61.452c0-0.685-0.005-1.197-0.014-1.54
	c-0.01-0.342-0.034-0.809-0.07-1.402c-0.037-0.59-0.102-1.044-0.194-1.358s-0.223-0.68-0.388-1.097
	c-0.167-0.416-0.376-0.729-0.626-0.943c-0.249-0.213-0.564-0.393-0.942-0.541c-0.379-0.148-0.819-0.222-1.318-0.222
	s-0.938,0.073-1.318,0.222c-0.378,0.148-0.692,0.328-0.943,0.541c-0.25,0.214-0.457,0.527-0.624,0.943
	c-0.167,0.417-0.295,0.782-0.388,1.097S247,57.92,246.963,58.51c-0.038,0.594-0.061,1.061-0.069,1.402
	c-0.01,0.343-0.015,0.855-0.015,1.54v10.654c0,0.687,0.005,1.199,0.015,1.541c0.009,0.342,0.031,0.81,0.069,1.401
	c0.037,0.592,0.102,1.045,0.194,1.358c0.093,0.315,0.221,0.681,0.388,1.098c0.167,0.415,0.374,0.73,0.624,0.942
	C248.42,78.661,248.735,78.84,249.113,78.988"/>
<path fill="#FFFFFF" d="M266.915,95.193V49.021h7.103v3.551c0.573-0.61,0.972-1.025,1.193-1.248s0.605-0.564,1.151-1.026
	c0.547-0.462,1.018-0.786,1.415-0.973c0.397-0.184,0.907-0.364,1.527-0.54c0.619-0.175,1.263-0.264,1.929-0.264
	c1.202,0,2.274,0.217,3.218,0.652c0.943,0.435,1.72,0.957,2.331,1.567s1.128,1.485,1.554,2.622c0.425,1.138,0.744,2.169,0.958,3.095
	c0.212,0.925,0.374,2.173,0.485,3.745c0.111,1.573,0.175,2.844,0.193,3.816c0.019,0.971,0.027,2.307,0.027,4.009v0.527
	c0,1.554-0.077,3.052-0.235,4.495c-0.157,1.443-0.442,2.908-0.859,4.397c-0.416,1.489-0.943,2.779-1.582,3.872
	c-0.639,1.091-1.489,1.984-2.553,2.677c-1.064,0.693-2.279,1.041-3.648,1.041c-2.405,0-4.773-1.229-7.104-3.69v13.846H266.915z
	 M279.344,79.211c0.759,0,1.393-0.278,1.902-0.833c0.508-0.555,0.878-1.345,1.109-2.372c0.23-1.026,0.389-2.045,0.472-3.052
	c0.084-1.009,0.125-2.188,0.125-3.538l-0.056-4.69c0-0.831-0.005-1.502-0.014-2.011c-0.01-0.51-0.042-1.184-0.098-2.026
	c-0.056-0.841-0.135-1.53-0.236-2.066c-0.103-0.537-0.254-1.129-0.458-1.776c-0.202-0.647-0.447-1.156-0.734-1.525
	c-0.287-0.37-0.657-0.685-1.11-0.944c-0.453-0.258-0.966-0.388-1.539-0.388c-0.278,0-0.541,0.019-0.791,0.056
	s-0.509,0.096-0.777,0.18c-0.268,0.083-0.49,0.157-0.666,0.222c-0.177,0.065-0.402,0.172-0.68,0.32
	c-0.277,0.147-0.477,0.254-0.597,0.318c-0.121,0.064-0.328,0.189-0.624,0.374c-0.297,0.186-0.481,0.297-0.556,0.333v21.977
	C275.646,78.73,277.421,79.211,279.344,79.211"/>
<polygon fill="#FFFFFF" points="68.804,98.017 70.045,98.017 70.045,92.787 69,92.787 69,94.105 67.802,94.105 67.802,91.588 
	73.772,91.588 73.772,94.105 72.573,94.105 72.573,92.787 71.539,92.787 71.539,98.017 72.769,98.017 72.769,99.215 68.804,99.215 
	"/>
<polygon fill="#FFFFFF" points="78.555,96.022 76.092,96.022 76.092,99.217 74.6,99.217 74.6,91.59 76.092,91.59 76.092,94.693 
	78.555,94.693 78.555,91.59 80.047,91.59 80.047,99.217 78.555,99.217 "/>
<polygon fill="#FFFFFF" points="81.354,91.588 86.354,91.588 86.354,92.918 82.847,92.918 82.847,94.693 86.082,94.693 
	86.082,96.022 82.847,96.022 82.847,97.886 86.409,97.886 86.409,99.215 81.354,99.215 "/>
<polygon fill="#FFFFFF" points="98.176,96.11 99.526,96.11 99.526,99.215 94.515,99.215 94.515,91.588 96.007,91.588 96.007,97.886 
	98.176,97.886 "/>
<path fill="#FFFFFF" d="M104.56,97.526h-2.276l-0.523,1.688h-1.493l2.462-7.627h1.493l2.451,7.627h-1.569L104.56,97.526z
	 M102.631,96.328h1.634l-0.773-2.549h-0.099L102.631,96.328z"/>
<polygon fill="#FFFFFF" points="108.024,98.017 109.266,98.017 109.266,92.787 108.22,92.787 108.22,94.105 107.021,94.105 
	107.021,91.588 112.992,91.588 112.992,94.105 111.793,94.105 111.793,92.787 110.759,92.787 110.759,98.017 111.989,98.017 
	111.989,99.215 108.024,99.215 "/>
<polygon fill="#FFFFFF" points="114.038,91.588 119.038,91.588 119.038,92.918 115.53,92.918 115.53,94.693 118.765,94.693 
	118.765,96.022 115.53,96.022 115.53,97.886 119.093,97.886 119.093,99.215 114.038,99.215 "/>
<path fill="#FFFFFF" d="M120.52,96.72h1.199v1.079c0.022,0.007,0.044,0.016,0.065,0.021c0.167,0.072,0.35,0.133,0.55,0.181
	c0.199,0.047,0.412,0.07,0.637,0.07c0.407,0,0.723-0.082,0.948-0.246c0.225-0.163,0.337-0.383,0.337-0.658
	c0-0.247-0.092-0.447-0.278-0.6c-0.185-0.153-0.414-0.287-0.687-0.402c-0.272-0.116-0.57-0.232-0.893-0.351
	c-0.323-0.114-0.621-0.263-0.893-0.44c-0.272-0.177-0.502-0.4-0.686-0.67c-0.186-0.27-0.278-0.617-0.278-1.045
	c0-0.327,0.063-0.627,0.191-0.899c0.126-0.272,0.304-0.507,0.534-0.703c0.229-0.195,0.503-0.349,0.823-0.457
	c0.319-0.109,0.675-0.163,1.067-0.163c0.443,0,0.879,0.039,1.308,0.12c0.428,0.078,0.77,0.188,1.024,0.326v2.212h-1.199v-1.209
	c-0.021,0-0.043-0.004-0.064-0.012c-0.16-0.043-0.333-0.077-0.519-0.104c-0.185-0.024-0.368-0.038-0.55-0.038
	c-0.348,0-0.623,0.069-0.822,0.206c-0.2,0.139-0.299,0.324-0.299,0.558c0,0.239,0.092,0.435,0.277,0.587
	c0.185,0.153,0.415,0.291,0.687,0.415c0.272,0.123,0.57,0.247,0.894,0.369c0.322,0.124,0.621,0.275,0.893,0.453
	c0.272,0.179,0.5,0.4,0.686,0.67c0.185,0.269,0.278,0.605,0.278,1.014c0,0.392-0.073,0.734-0.218,1.028
	c-0.146,0.295-0.349,0.542-0.61,0.742c-0.261,0.198-0.57,0.348-0.926,0.445c-0.356,0.099-0.741,0.147-1.154,0.147
	c-0.276,0-0.533-0.021-0.769-0.064c-0.236-0.045-0.454-0.099-0.654-0.164c-0.2-0.065-0.375-0.135-0.527-0.208
	c-0.153-0.071-0.276-0.133-0.371-0.186V96.72z"/>
<polygon fill="#FFFFFF" points="127.634,98.017 128.875,98.017 128.875,92.787 127.83,92.787 127.83,94.105 126.631,94.105 
	126.631,91.588 132.602,91.588 132.602,94.105 131.403,94.105 131.403,92.787 130.369,92.787 130.369,98.017 131.599,98.017 
	131.599,99.215 127.634,99.215 "/>
<path fill="#FFFFFF" d="M145.228,93.363c0,0.19-0.022,0.379-0.069,0.567c-0.048,0.189-0.126,0.362-0.236,0.518
	c-0.108,0.156-0.25,0.294-0.423,0.414c-0.176,0.12-0.386,0.209-0.633,0.267v0.065c0.217,0.036,0.425,0.098,0.62,0.186
	c0.197,0.088,0.368,0.208,0.513,0.359c0.145,0.152,0.261,0.338,0.344,0.555c0.082,0.219,0.124,0.478,0.124,0.775
	c0,0.392-0.084,0.731-0.249,1.018c-0.168,0.288-0.391,0.521-0.67,0.703c-0.28,0.182-0.598,0.316-0.954,0.402
	c-0.355,0.088-0.724,0.132-1.101,0.132h-0.473c-0.193,0-0.4-0.006-0.622-0.017c-0.221-0.011-0.445-0.027-0.676-0.05
	c-0.229-0.021-0.438-0.054-0.626-0.097v-7.518c0.138-0.021,0.296-0.044,0.475-0.066c0.178-0.021,0.368-0.039,0.571-0.053
	c0.203-0.016,0.413-0.026,0.627-0.034c0.214-0.007,0.426-0.011,0.636-0.011c0.356,0,0.705,0.027,1.042,0.082
	c0.337,0.054,0.639,0.15,0.904,0.289c0.265,0.138,0.477,0.329,0.637,0.576S145.228,92.987,145.228,93.363 M142.002,94.792
	c0.104,0,0.224-0.004,0.36-0.011c0.138-0.008,0.251-0.019,0.34-0.032c0.281-0.087,0.523-0.217,0.729-0.389
	c0.203-0.173,0.305-0.398,0.305-0.679c0-0.187-0.037-0.342-0.111-0.464s-0.172-0.22-0.294-0.291
	c-0.121-0.072-0.262-0.123-0.418-0.151c-0.154-0.028-0.318-0.043-0.488-0.043c-0.193,0-0.369,0.004-0.533,0.011
	c-0.162,0.008-0.288,0.018-0.377,0.032v2.017H142.002z M142.483,98.071c0.182,0,0.358-0.021,0.528-0.064
	c0.171-0.043,0.321-0.11,0.452-0.2c0.131-0.089,0.235-0.203,0.316-0.34c0.079-0.136,0.119-0.298,0.119-0.485
	c0-0.237-0.047-0.424-0.142-0.56c-0.094-0.138-0.217-0.244-0.37-0.319c-0.153-0.074-0.324-0.124-0.512-0.146
	c-0.188-0.022-0.378-0.032-0.567-0.032h-0.794v2.082c0.034,0.014,0.094,0.024,0.173,0.032c0.08,0.006,0.166,0.012,0.257,0.016
	c0.092,0.004,0.186,0.007,0.282,0.012C142.325,98.069,142.411,98.071,142.483,98.071"/>
<path fill="#FFFFFF" d="M146.35,95.402c0-0.618,0.059-1.174,0.175-1.667c0.116-0.495,0.295-0.91,0.534-1.248
	c0.239-0.337,0.539-0.598,0.899-0.779c0.358-0.182,0.781-0.271,1.268-0.271c0.523,0,0.966,0.098,1.329,0.294s0.66,0.468,0.889,0.816
	s0.396,0.768,0.502,1.253c0.104,0.487,0.156,1.021,0.156,1.603c0,1.241-0.237,2.213-0.713,2.914s-1.197,1.051-2.163,1.051
	c-0.521,0-0.966-0.098-1.334-0.294c-0.366-0.195-0.665-0.469-0.893-0.817c-0.229-0.348-0.396-0.766-0.496-1.252
	C146.402,96.517,146.35,95.983,146.35,95.402 M147.918,95.402c0,0.369,0.017,0.714,0.05,1.034c0.032,0.32,0.094,0.598,0.186,0.834
	c0.092,0.235,0.223,0.424,0.393,0.561c0.171,0.139,0.398,0.208,0.68,0.208c0.255,0,0.465-0.054,0.633-0.158
	c0.168-0.105,0.302-0.267,0.402-0.485c0.103-0.218,0.173-0.492,0.213-0.822c0.039-0.331,0.06-0.722,0.06-1.171
	c0-0.355-0.013-0.694-0.037-1.015c-0.025-0.318-0.084-0.599-0.175-0.838c-0.09-0.239-0.224-0.431-0.397-0.573
	c-0.175-0.141-0.406-0.211-0.698-0.211c-0.508,0-0.853,0.222-1.034,0.665S147.918,94.53,147.918,95.402"/>
<path fill="#FFFFFF" d="M158.302,93.363c0,0.19-0.024,0.379-0.071,0.567c-0.048,0.189-0.125,0.362-0.234,0.518
	c-0.109,0.156-0.25,0.294-0.425,0.414c-0.174,0.12-0.384,0.209-0.631,0.267v0.065c0.217,0.036,0.425,0.098,0.62,0.186
	c0.196,0.088,0.367,0.208,0.512,0.359c0.146,0.152,0.259,0.338,0.345,0.555c0.082,0.219,0.124,0.478,0.124,0.775
	c0,0.392-0.084,0.731-0.252,1.018c-0.165,0.288-0.388,0.521-0.668,0.703s-0.599,0.316-0.954,0.402
	c-0.355,0.088-0.723,0.132-1.101,0.132h-0.474c-0.192,0-0.398-0.006-0.621-0.017s-0.446-0.027-0.675-0.05
	c-0.229-0.021-0.438-0.054-0.628-0.097v-7.518c0.139-0.021,0.297-0.044,0.475-0.066c0.178-0.021,0.368-0.039,0.572-0.053
	c0.204-0.016,0.411-0.026,0.626-0.034c0.216-0.007,0.426-0.011,0.638-0.011c0.356,0,0.702,0.027,1.041,0.082
	c0.337,0.054,0.639,0.15,0.904,0.289c0.266,0.138,0.477,0.329,0.637,0.576S158.302,92.987,158.302,93.363 M155.075,94.792
	c0.104,0,0.226-0.004,0.361-0.011c0.138-0.008,0.251-0.019,0.34-0.032c0.281-0.087,0.523-0.217,0.728-0.389
	c0.205-0.173,0.307-0.398,0.307-0.679c0-0.187-0.037-0.342-0.111-0.464s-0.173-0.22-0.296-0.291
	c-0.122-0.072-0.261-0.123-0.416-0.151s-0.318-0.043-0.489-0.043c-0.192,0-0.371,0.004-0.534,0.011
	c-0.161,0.008-0.289,0.018-0.376,0.032v2.017H155.075z M155.557,98.071c0.18,0,0.356-0.021,0.528-0.064
	c0.17-0.043,0.321-0.11,0.451-0.2c0.131-0.089,0.236-0.203,0.316-0.34c0.08-0.136,0.12-0.298,0.12-0.485
	c0-0.237-0.047-0.424-0.143-0.56c-0.094-0.138-0.218-0.244-0.369-0.319c-0.153-0.074-0.324-0.124-0.513-0.146
	c-0.189-0.022-0.378-0.032-0.567-0.032h-0.794v2.082c0.035,0.014,0.094,0.024,0.174,0.032c0.079,0.006,0.164,0.012,0.257,0.016
	c0.09,0.004,0.185,0.007,0.282,0.012C155.399,98.069,155.483,98.071,155.557,98.071"/>
<path fill="#FFFFFF" d="M164.838,93.363c0,0.19-0.023,0.379-0.071,0.567c-0.047,0.189-0.124,0.362-0.233,0.518
	c-0.108,0.156-0.252,0.294-0.425,0.414c-0.175,0.12-0.386,0.209-0.633,0.267v0.065c0.218,0.036,0.426,0.098,0.62,0.186
	c0.198,0.088,0.369,0.208,0.514,0.359c0.146,0.152,0.26,0.338,0.345,0.555c0.082,0.219,0.123,0.478,0.123,0.775
	c0,0.392-0.083,0.731-0.25,1.018c-0.168,0.288-0.39,0.521-0.669,0.703c-0.28,0.182-0.599,0.316-0.954,0.402
	c-0.355,0.088-0.723,0.132-1.101,0.132h-0.474c-0.192,0-0.398-0.006-0.621-0.017c-0.222-0.011-0.446-0.027-0.676-0.05
	c-0.229-0.021-0.438-0.054-0.627-0.097v-7.518c0.138-0.021,0.296-0.044,0.474-0.066c0.178-0.021,0.369-0.039,0.573-0.053
	c0.202-0.016,0.413-0.026,0.626-0.034c0.216-0.007,0.427-0.011,0.637-0.011c0.355,0,0.704,0.027,1.04,0.082
	c0.339,0.054,0.641,0.15,0.904,0.289c0.268,0.138,0.478,0.329,0.638,0.576C164.759,92.674,164.838,92.987,164.838,93.363
	 M161.612,94.792c0.104,0,0.224-0.004,0.362-0.011c0.136-0.008,0.25-0.019,0.339-0.032c0.281-0.087,0.523-0.217,0.729-0.389
	c0.203-0.173,0.304-0.398,0.304-0.679c0-0.187-0.037-0.342-0.111-0.464c-0.073-0.122-0.171-0.22-0.294-0.291
	c-0.122-0.072-0.262-0.123-0.416-0.151c-0.155-0.028-0.318-0.043-0.488-0.043c-0.193,0-0.372,0.004-0.535,0.011
	c-0.161,0.008-0.287,0.018-0.376,0.032v2.017H161.612z M162.092,98.071c0.184,0,0.358-0.021,0.529-0.064
	c0.17-0.043,0.321-0.11,0.452-0.2c0.131-0.089,0.236-0.203,0.316-0.34c0.079-0.136,0.12-0.298,0.12-0.485
	c0-0.237-0.049-0.424-0.143-0.56c-0.094-0.138-0.218-0.244-0.371-0.319c-0.151-0.074-0.323-0.124-0.511-0.146
	c-0.19-0.022-0.378-0.032-0.567-0.032h-0.794v2.082c0.035,0.014,0.094,0.024,0.174,0.032c0.079,0.006,0.164,0.012,0.256,0.016
	c0.091,0.004,0.186,0.007,0.283,0.012C161.934,98.069,162.02,98.071,162.092,98.071"/>
<polygon fill="#FFFFFF" points="170.079,96.11 171.429,96.11 171.429,99.215 166.418,99.215 166.418,91.588 167.911,91.588 
	167.911,97.886 170.079,97.886 "/>
<polygon fill="#FFFFFF" points="172.867,91.588 177.868,91.588 177.868,92.918 174.36,92.918 174.36,94.693 177.596,94.693 
	177.596,96.022 174.36,96.022 174.36,97.886 177.922,97.886 177.922,99.215 172.867,99.215 "/>
<polygon fill="#FFFFFF" points="183.141,96.022 180.678,96.022 180.678,99.217 179.186,99.217 179.186,91.59 180.678,91.59 
	180.678,94.693 183.141,94.693 183.141,91.59 184.633,91.59 184.633,99.217 183.141,99.217 "/>
<polygon fill="#FFFFFF" points="185.941,91.588 190.941,91.588 190.941,92.918 187.434,92.918 187.434,94.693 190.668,94.693 
	190.668,96.022 187.434,96.022 187.434,97.886 190.997,97.886 190.997,99.215 185.941,99.215 "/>
<path fill="#FFFFFF" d="M196.073,97.526h-2.275l-0.525,1.688h-1.491l2.462-7.627h1.493l2.451,7.627h-1.569L196.073,97.526z
	 M194.144,96.328h1.635l-0.773-2.549h-0.099L194.144,96.328z"/>
<path fill="#FFFFFF" d="M198.795,91.588c0.066-0.006,0.181-0.019,0.344-0.031c0.163-0.016,0.349-0.027,0.557-0.039
	c0.206-0.011,0.421-0.02,0.642-0.025c0.223-0.009,0.421-0.013,0.595-0.013c0.676,0,1.234,0.098,1.678,0.294
	c0.442,0.196,0.793,0.467,1.05,0.812c0.259,0.347,0.439,0.753,0.54,1.221c0.102,0.469,0.153,0.979,0.153,1.531
	c0,0.5-0.052,0.991-0.153,1.47c-0.101,0.479-0.284,0.907-0.55,1.28c-0.266,0.374-0.632,0.676-1.1,0.904
	c-0.469,0.229-1.069,0.344-1.804,0.344c-0.116,0-0.266-0.004-0.447-0.011c-0.181-0.008-0.367-0.017-0.556-0.027
	c-0.188-0.012-0.369-0.022-0.544-0.032c-0.174-0.012-0.309-0.023-0.404-0.038V91.588z M200.987,92.809
	c-0.139,0-0.273,0.005-0.403,0.017c-0.131,0.011-0.229,0.02-0.295,0.028v5.108c0.029,0.008,0.072,0.013,0.132,0.017
	c0.057,0.004,0.117,0.007,0.18,0.011c0.062,0.004,0.121,0.008,0.18,0.012c0.058,0.002,0.105,0.005,0.142,0.005
	c0.421,0,0.757-0.078,1.008-0.233c0.249-0.157,0.438-0.362,0.561-0.617c0.124-0.254,0.203-0.541,0.24-0.861
	c0.035-0.318,0.054-0.639,0.054-0.957c0-0.275-0.016-0.563-0.049-0.861c-0.032-0.298-0.109-0.57-0.229-0.816
	c-0.12-0.247-0.299-0.451-0.539-0.61C201.728,92.89,201.4,92.809,200.987,92.809"/>
<path fill="#FFFFFF" d="M211.869,91.588c0.065-0.006,0.181-0.019,0.344-0.031c0.163-0.016,0.349-0.027,0.556-0.039
	c0.206-0.011,0.422-0.02,0.643-0.025c0.223-0.009,0.42-0.013,0.595-0.013c0.674,0,1.233,0.098,1.678,0.294
	c0.442,0.196,0.793,0.467,1.05,0.812c0.258,0.347,0.438,0.753,0.54,1.221c0.102,0.469,0.153,0.979,0.153,1.531
	c0,0.5-0.052,0.991-0.153,1.47c-0.102,0.479-0.284,0.907-0.55,1.28c-0.266,0.374-0.633,0.676-1.101,0.904
	c-0.469,0.229-1.069,0.344-1.803,0.344c-0.116,0-0.266-0.004-0.447-0.011c-0.182-0.008-0.367-0.017-0.556-0.027
	c-0.188-0.012-0.37-0.022-0.545-0.032c-0.174-0.012-0.308-0.023-0.403-0.038V91.588z M214.059,92.809
	c-0.138,0-0.272,0.005-0.403,0.017c-0.13,0.011-0.229,0.02-0.295,0.028v5.108c0.03,0.008,0.073,0.013,0.132,0.017
	c0.058,0.004,0.118,0.007,0.18,0.011c0.062,0.004,0.121,0.008,0.181,0.012c0.057,0.002,0.104,0.005,0.141,0.005
	c0.422,0,0.758-0.078,1.009-0.233c0.249-0.157,0.437-0.362,0.561-0.617c0.123-0.254,0.202-0.541,0.239-0.861
	c0.036-0.318,0.055-0.639,0.055-0.957c0-0.275-0.016-0.563-0.05-0.861c-0.031-0.298-0.108-0.57-0.229-0.816
	c-0.119-0.247-0.299-0.451-0.538-0.61C214.799,92.89,214.473,92.809,214.059,92.809"/>
<polygon fill="#FFFFFF" points="218.624,91.588 223.625,91.588 223.625,92.918 220.117,92.918 220.117,94.693 223.352,94.693 
	223.352,96.022 220.117,96.022 220.117,97.886 223.679,97.886 223.679,99.215 218.624,99.215 "/>
<path fill="#FFFFFF" d="M225.106,96.72h1.198v1.079c0.022,0.007,0.044,0.016,0.065,0.021c0.167,0.072,0.352,0.133,0.55,0.181
	c0.199,0.047,0.413,0.07,0.638,0.07c0.406,0,0.723-0.082,0.949-0.246c0.224-0.163,0.337-0.383,0.337-0.658
	c0-0.247-0.093-0.447-0.278-0.6c-0.185-0.153-0.413-0.287-0.686-0.402c-0.272-0.116-0.57-0.232-0.895-0.351
	c-0.323-0.114-0.621-0.263-0.893-0.44c-0.273-0.177-0.501-0.4-0.687-0.67c-0.185-0.27-0.277-0.617-0.277-1.045
	c0-0.327,0.062-0.627,0.19-0.899c0.127-0.272,0.305-0.507,0.533-0.703c0.229-0.195,0.503-0.349,0.823-0.457
	c0.319-0.109,0.676-0.163,1.067-0.163c0.443,0,0.878,0.039,1.307,0.12c0.431,0.078,0.771,0.188,1.024,0.326v2.212h-1.198v-1.209
	c-0.022,0-0.043-0.004-0.065-0.012c-0.159-0.043-0.332-0.077-0.518-0.104c-0.186-0.024-0.368-0.038-0.55-0.038
	c-0.349,0-0.624,0.069-0.823,0.206c-0.198,0.139-0.299,0.324-0.299,0.558c0,0.239,0.093,0.435,0.278,0.587
	c0.184,0.153,0.414,0.291,0.686,0.415c0.273,0.123,0.57,0.247,0.894,0.369c0.323,0.124,0.621,0.275,0.893,0.453
	c0.273,0.179,0.501,0.4,0.688,0.67c0.186,0.269,0.277,0.605,0.277,1.014c0,0.392-0.072,0.734-0.218,1.028
	c-0.145,0.295-0.349,0.542-0.609,0.742c-0.262,0.198-0.571,0.348-0.927,0.445c-0.355,0.099-0.74,0.147-1.155,0.147
	c-0.275,0-0.531-0.021-0.768-0.064c-0.237-0.045-0.454-0.099-0.653-0.164c-0.2-0.065-0.376-0.135-0.528-0.208
	c-0.152-0.071-0.277-0.133-0.371-0.186V96.72z"/>
<polygon fill="#FFFFFF" points="231.523,97.886 233.452,97.886 233.452,92.918 231.523,92.918 231.523,91.588 236.884,91.588 
	236.884,92.918 234.943,92.918 234.943,97.886 236.884,97.886 236.884,99.215 231.523,99.215 "/>
<path fill="#FFFFFF" d="M240.99,95.238h2.604v3.443c-0.247,0.225-0.568,0.396-0.964,0.511c-0.396,0.116-0.801,0.175-1.216,0.175
	c-0.485,0-0.941-0.083-1.366-0.25c-0.425-0.168-0.793-0.42-1.105-0.757c-0.313-0.339-0.561-0.757-0.742-1.253
	c-0.181-0.498-0.271-1.081-0.271-1.75c0-0.704,0.108-1.303,0.326-1.797c0.219-0.493,0.501-0.898,0.845-1.215
	c0.346-0.316,0.732-0.546,1.16-0.692c0.43-0.145,0.853-0.217,1.274-0.217c0.436,0,0.799,0.034,1.09,0.104
	c0.291,0.068,0.556,0.157,0.796,0.267v2.255h-1.199v-1.209c-0.058-0.016-0.116-0.028-0.174-0.044
	c-0.146-0.029-0.306-0.043-0.479-0.043c-0.298,0-0.574,0.051-0.828,0.152c-0.254,0.101-0.474,0.259-0.658,0.475
	c-0.186,0.213-0.33,0.487-0.431,0.822c-0.104,0.334-0.152,0.732-0.152,1.197c0,0.415,0.049,0.784,0.152,1.112
	c0.101,0.327,0.243,0.603,0.425,0.827c0.182,0.226,0.397,0.396,0.648,0.512c0.249,0.116,0.521,0.176,0.811,0.176
	c0.188,0,0.362-0.022,0.518-0.065c0.157-0.045,0.263-0.087,0.322-0.131v-1.515h-1.385V95.238z"/>
<polygon fill="#FFFFFF" points="246.024,94.704 245.97,94.704 246.035,95.608 246.035,99.215 244.619,99.215 244.619,91.588 
	245.925,91.588 248.562,96.251 248.617,96.251 248.519,95.337 248.519,91.588 249.935,91.588 249.935,99.215 248.627,99.215 "/>
<path fill="#FFFFFF" d="M251.253,96.72h1.198v1.079c0.022,0.007,0.043,0.016,0.065,0.021c0.167,0.072,0.351,0.133,0.55,0.181
	c0.199,0.047,0.412,0.07,0.638,0.07c0.406,0,0.723-0.082,0.947-0.246c0.225-0.163,0.339-0.383,0.339-0.658
	c0-0.247-0.093-0.447-0.278-0.6c-0.186-0.153-0.414-0.287-0.686-0.402c-0.273-0.116-0.571-0.232-0.895-0.351
	c-0.324-0.114-0.621-0.263-0.894-0.44c-0.272-0.177-0.5-0.4-0.686-0.67s-0.278-0.617-0.278-1.045c0-0.327,0.063-0.627,0.19-0.899
	s0.306-0.507,0.534-0.703c0.229-0.195,0.503-0.349,0.822-0.457c0.32-0.109,0.676-0.163,1.067-0.163c0.444,0,0.879,0.039,1.308,0.12
	c0.43,0.078,0.77,0.188,1.024,0.326v2.212h-1.198v-1.209c-0.022,0-0.044-0.004-0.065-0.012c-0.16-0.043-0.333-0.077-0.519-0.104
	c-0.185-0.024-0.368-0.038-0.55-0.038c-0.348,0-0.623,0.069-0.822,0.206c-0.199,0.139-0.299,0.324-0.299,0.558
	c0,0.239,0.093,0.435,0.277,0.587c0.185,0.153,0.414,0.291,0.686,0.415c0.273,0.123,0.571,0.247,0.894,0.369
	c0.324,0.124,0.622,0.275,0.894,0.453c0.273,0.179,0.5,0.4,0.687,0.67c0.186,0.269,0.278,0.605,0.278,1.014
	c0,0.392-0.073,0.734-0.219,1.028c-0.145,0.295-0.349,0.542-0.609,0.742c-0.262,0.198-0.57,0.348-0.926,0.445
	c-0.356,0.099-0.74,0.147-1.155,0.147c-0.276,0-0.531-0.021-0.768-0.064c-0.237-0.045-0.455-0.099-0.653-0.164
	c-0.2-0.065-0.376-0.135-0.529-0.208c-0.151-0.071-0.276-0.133-0.37-0.186V96.72z"/>
<path fill="#FFFFFF" d="M30.012,53.282c-3.254,0-5.892,2.637-5.892,5.889c0,3.251,2.637,5.889,5.892,5.889
	c3.249,0,5.886-2.638,5.886-5.889C35.898,55.919,33.261,53.282,30.012,53.282 M30.008,60.91c-0.962,0-1.737-0.778-1.737-1.738
	s0.774-1.74,1.737-1.74c0.96,0,1.738,0.78,1.738,1.74S30.969,60.91,30.008,60.91"/>
<path fill="none" d="M-1.955-257.618"/>
</svg>
