<?xml version="1.0" encoding="utf-8"?>
<!-- Generator: Adobe Illustrator 16.0.0, SVG Export Plug-In . SVG Version: 6.00 Build 0)  -->
<!DOCTYPE svg PUBLIC "-//W3C//DTD SVG 1.1//EN" "http://www.w3.org/Graphics/SVG/1.1/DTD/svg11.dtd">
<svg version="1.1" id="Logo" xmlns="http://www.w3.org/2000/svg" xmlns:xlink="http://www.w3.org/1999/xlink" x="0px" y="0px"
	 width="40px" height="40px" viewBox="0 0 40 40" enable-background="new 0 0 40 40" xml:space="preserve">
<g>
	<path fill="#FFFFFF" d="M20,3.604c5.341,0,5.973,0.02,8.082,0.116c1.95,0.089,3.009,0.415,3.713,0.689
		c0.934,0.363,1.601,0.796,2.301,1.496c0.699,0.7,1.133,1.366,1.496,2.299c0.273,0.705,0.599,1.764,0.688,3.714
		c0.098,2.109,0.117,2.742,0.117,8.082c0,5.341-0.02,5.973-0.117,8.082c-0.089,1.95-0.414,3.009-0.688,3.713
		c-0.363,0.934-0.797,1.601-1.496,2.301c-0.7,0.699-1.367,1.133-2.301,1.496c-0.704,0.273-1.763,0.599-3.713,0.688
		c-2.108,0.098-2.741,0.117-8.082,0.117s-5.973-0.02-8.082-0.117c-1.95-0.089-3.009-0.414-3.714-0.688
		c-0.934-0.363-1.6-0.797-2.299-1.496c-0.7-0.7-1.133-1.367-1.496-2.301c-0.274-0.704-0.6-1.763-0.689-3.713
		C3.624,25.973,3.604,25.341,3.604,20c0-5.34,0.02-5.973,0.116-8.082c0.089-1.95,0.415-3.009,0.689-3.714
		c0.363-0.934,0.796-1.6,1.496-2.299s1.366-1.133,2.299-1.496c0.705-0.274,1.764-0.6,3.714-0.689C14.027,3.624,14.66,3.604,20,3.604
		 M20,0c-5.432,0-6.112,0.023-8.246,0.121C9.625,0.218,8.171,0.556,6.899,1.05C5.584,1.562,4.469,2.245,3.357,3.357
		S1.562,5.584,1.05,6.899c-0.494,1.272-0.832,2.726-0.929,4.855C0.023,13.888,0,14.568,0,20s0.023,6.113,0.121,8.246
		c0.097,2.129,0.435,3.583,0.929,4.854c0.512,1.315,1.195,2.431,2.307,3.543s2.228,1.796,3.542,2.307
		c1.272,0.494,2.726,0.833,4.855,0.93C13.888,39.978,14.568,40,20,40s6.113-0.022,8.246-0.12c2.129-0.097,3.583-0.436,4.854-0.93
		c1.315-0.511,2.431-1.194,3.543-2.307s1.796-2.228,2.307-3.543c0.494-1.271,0.833-2.726,0.93-4.854C39.978,26.113,40,25.432,40,20
		s-0.022-6.112-0.12-8.246c-0.097-2.129-0.436-3.583-0.93-4.855c-0.511-1.315-1.194-2.431-2.307-3.542s-2.228-1.795-3.543-2.307
		c-1.271-0.494-2.726-0.832-4.854-0.929C26.113,0.023,25.432,0,20,0L20,0z"/>
	<path fill="#FFFFFF" d="M20,9.73C14.328,9.73,9.73,14.328,9.73,20c0,5.673,4.598,10.271,10.27,10.271
		c5.673,0,10.271-4.598,10.271-10.271C30.271,14.328,25.673,9.73,20,9.73z M20,26.667c-3.682,0-6.667-2.985-6.667-6.667
		s2.985-6.667,6.667-6.667s6.667,2.985,6.667,6.667S23.682,26.667,20,26.667z"/>
	<circle fill="#FFFFFF" cx="30.676" cy="9.324" r="2.4"/>
</g>
</svg>
