<?xml version="1.0" encoding="utf-8"?>
<!-- Generator: Adobe Illustrator 16.0.0, SVG Export Plug-In . SVG Version: 6.00 Build 0)  -->
<!DOCTYPE svg PUBLIC "-//W3C//DTD SVG 1.1//EN" "http://www.w3.org/Graphics/SVG/1.1/DTD/svg11.dtd">
<svg version="1.1" id="Layer_1" xmlns="http://www.w3.org/2000/svg" xmlns:xlink="http://www.w3.org/1999/xlink" x="0px" y="0px"
	 width="50px" height="40px" viewBox="0 0 50 40" enable-background="new 0 0 50 40" xml:space="preserve">
<path fill="#FFFFFF" d="M49.595,4.736c-1.811,0.803-3.747,1.343-5.789,1.593c2.084-1.25,3.686-3.227,4.436-5.579
	c-1.946,1.154-4.101,1.998-6.402,2.447C39.997,1.229,37.373,0,34.479,0C28.91,0,24.402,4.519,24.402,10.087
	c0,0.791,0.083,1.562,0.26,2.301C16.282,11.972,8.85,7.953,3.884,1.843C3.02,3.333,2.52,5.07,2.52,6.913
	c0,3.498,1.791,6.589,4.498,8.401c-1.667-0.042-3.227-0.5-4.581-1.261c0,0.043,0,0.084,0,0.127c0,4.892,3.476,8.962,8.088,9.89
	c-0.843,0.227-1.738,0.354-2.654,0.354c-0.646,0-1.281-0.064-1.895-0.189c1.28,4.008,5.007,6.924,9.421,7.007
	c-3.445,2.708-7.798,4.32-12.523,4.32c-0.812,0-1.614-0.052-2.404-0.146c4.444,2.895,9.744,4.561,15.428,4.561
	c18.562,0,28.7-15.377,28.7-28.711c0-0.438-0.009-0.875-0.03-1.301C46.534,8.537,48.241,6.766,49.595,4.736z"/>
<g>
</g>
<g>
</g>
<g>
</g>
<g>
</g>
<g>
</g>
<g>
</g>
<g>
</g>
<g>
</g>
<g>
</g>
<g>
</g>
<g>
</g>
<g>
</g>
<g>
</g>
<g>
</g>
<g>
</g>
</svg>
